<svg xmlns="http://www.w3.org/2000/svg" viewBox="0 0 153.25 132.5"><defs><style>.cls-1{fill:#fff;}.cls-2{fill:#45a688;}</style></defs><g id="Capa_2" data-name="Capa 2"><g id="Layer_1" data-name="Layer 1"><polygon class="cls-1" points="70.25 0 38 0 0 66.5 38.5 132.5 70.25 132.5 70.25 117.25 47.5 117.25 18.25 66.25 48 15.25 70.25 15.25 70.25 0"/><polygon class="cls-2" points="83 0 115.25 0 153.25 66.5 114.75 132.5 83 132.5 83 117.25 105.75 117.25 135 66.25 105.25 15.25 83 15.25 83 0"/><polygon class="cls-1" points="103.42 20.75 103.42 109.75 83 109.75 83 99.08 92.33 99.04 92.33 20.71 103.42 20.75"/><polygon class="cls-2" points="67.13 20.71 41 66.25 67.13 111.25 55.38 111.25 29.13 65.98 55.25 20.71 67.13 20.71"/></g></g></svg>